# Blender v2.71 (sub 0) OBJ File: 'crystal_cave_by_joonas_rautiola1.blend'
# www.blender.org
mtllib crystal.mtl
o Plane_Plane.001
v 0.263119 0.232330 0.198612
v -0.152178 -0.061006 0.635695
v -0.138344 0.048747 -0.306049
v -0.553642 -0.244589 0.131034
v 0.055471 0.085662 0.417153
v -0.345993 -0.097921 -0.087508
v 0.062387 0.140538 -0.053719
v -0.352910 -0.152798 0.383364
v -0.145261 -0.006130 0.164823
v -1.111867 1.711777 -0.481873
v -1.429812 1.487204 -0.147251
v -0.792112 1.857996 -0.079924
v -1.110057 1.633423 0.254699
v -1.682426 0.757375 0.231224
v -1.354139 0.989253 -0.114285
v -1.365074 0.902495 0.630152
v -1.036787 1.134373 0.284644
v -1.366345 1.923596 1.304397
v -1.045997 2.149867 0.967244
v -1.676023 1.781985 0.915116
v -1.355674 2.008256 0.577963
v 0.116470 1.404125 0.333021
v -0.221828 1.165176 0.689065
v -0.210559 1.254580 -0.078071
v -0.548857 1.015631 0.277972
v -0.342049 1.422172 0.328389
v -1.294127 1.872684 -0.131308
v -1.508280 2.214341 0.967968
v -1.514080 1.206440 0.286031
v 0.145947 -0.337363 -0.722854
v 0.479610 0.019727 -0.117026
v -0.555979 -0.209176 -0.411822
v -0.222317 0.147914 0.194007
v 0.312779 -0.158818 -0.419940
v -0.389148 -0.030631 -0.108907
v -0.205016 -0.273270 -0.567338
v 0.128647 0.083820 0.038490
v -0.038184 -0.094724 -0.264423
v -1.068877 1.641637 -1.577017
v -0.813431 1.915019 -1.113205
v -0.509812 1.539539 -1.824746
v -0.254365 1.812922 -1.360933
v -0.493652 1.844262 -0.169996
v -0.757407 1.561987 -0.648896
v 0.061212 1.742931 -0.415864
v -0.202544 1.460656 -0.894764
v 0.821181 2.539514 -1.313506
v 0.563804 2.264066 -1.780825
v 0.279737 2.638394 -1.073584
v 0.022359 2.362946 -1.540903
v 0.259697 0.526205 -1.792986
v 0.531495 0.817086 -1.299485
v -0.312086 0.630625 -1.539622
v -0.040288 0.921507 -1.046120
v 0.093838 0.975098 -1.558904
v -0.742716 2.014310 -1.572070
v 0.403205 2.745221 -1.590264
v -0.367571 1.960830 -0.703416
v 0.906212 -0.317357 0.531250
v 0.094434 -0.079822 0.531250
v 0.906212 -0.317357 -0.314567
v 0.094434 -0.079822 -0.314566
v 0.500323 -0.198589 0.531250
v 0.500322 -0.198589 -0.314566
v 0.906212 -0.317357 0.108341
v 0.094433 -0.079822 0.108342
v 0.500323 -0.198589 0.108342
v 1.869805 1.901319 -0.642427
v 1.248324 2.083171 -0.642427
v 1.869805 1.901319 0.031241
v 1.248323 2.083171 0.031242
v 0.209965 1.779910 -0.725961
v 0.851665 1.592142 -0.725961
v 0.209966 1.779910 -0.057354
v 0.851665 1.592142 -0.057354
v 0.549859 2.912707 0.934560
v 1.176040 2.729480 0.934560
v 0.549859 2.912708 0.282124
v 1.176039 2.729481 0.282124
v 1.697182 0.884594 0.952838
v 1.035916 1.078088 0.952839
v 1.697182 0.884594 0.263844
v 1.035916 1.078088 0.263845
v 1.454358 1.281425 0.608341
v 1.634758 2.315446 -0.391659
v 0.965698 3.172236 0.608341
v 0.638589 2.054344 -0.391658
vn 0.582100 0.301200 0.755300
vn 0.550200 0.350400 0.758000
vn -0.627100 -0.223800 -0.746100
vn -0.652000 -0.175900 -0.737500
vn -0.784800 0.365700 -0.500300
vn 0.677900 0.327200 -0.658300
vn -0.635400 -0.409800 0.654500
vn -0.524500 -0.387200 -0.758200
vn -0.492000 -0.615800 0.615400
vn 0.570700 0.513500 -0.640800
vn -0.471900 -0.456200 -0.754500
vn -0.546200 -0.547700 0.633800
vn 0.589000 0.486300 -0.645500
vn 0.661100 0.157200 0.733700
vn -0.030300 0.843000 0.537000
vn 0.721300 0.010800 0.692600
vn -0.672500 -0.338500 0.658100
vn 0.741000 0.167300 -0.650300
vn -0.778400 0.450200 -0.437500
vn -0.792300 0.340200 0.506500
vn 0.026400 0.818300 0.574200
vn 0.040300 0.928300 -0.369700
vn 0.066600 0.919500 -0.387400
vn -0.799600 0.259000 0.541800
vn -0.783900 0.298400 -0.544500
vn 0.124400 0.896600 -0.425100
vn -0.800200 0.243500 0.548000
vn 0.109000 0.774400 0.623300
vn 0.117900 0.769100 0.628200
vn -0.785000 0.356100 -0.506900
vn -0.800600 0.232700 0.552200
vn 0.133500 0.892500 -0.430900
vn 0.899500 -0.136600 -0.414900
vn 0.893000 -0.084700 -0.441900
vn -0.903500 0.214900 0.370900
vn -0.902300 0.261700 0.342700
vn -0.709800 0.704000 -0.024100
vn -0.418400 -0.564100 -0.711800
vn 0.426700 0.486600 0.762400
vn -0.886000 0.045000 0.461500
vn 0.430300 0.254700 0.866000
vn -0.431900 -0.377600 -0.819100
vn -0.867400 -0.032200 0.496700
vn 0.432200 0.338300 0.835900
vn -0.431100 -0.407500 -0.805000
vn 0.901100 -0.279600 -0.331500
vn 0.512900 0.585600 -0.627700
vn 0.878400 -0.413300 -0.240200
vn 0.419800 0.553900 0.719000
vn -0.393700 -0.694500 -0.602300
vn -0.646900 0.757200 -0.090100
vn 0.247300 0.954900 0.164500
vn 0.565200 0.535900 -0.627200
vn -0.328900 0.338200 -0.881700
vn -0.338000 0.307600 -0.889500
vn 0.277700 0.929200 0.243900
vn -0.752400 0.658200 0.026500
vn -0.356600 0.238700 -0.903200
vn 0.283300 0.923500 0.258600
vn 0.636400 0.458200 -0.620600
vn 0.643700 0.449400 -0.619400
vn -0.716200 0.697700 -0.016800
vn 0.287000 0.919500 0.268800
vn -0.359400 0.227600 -0.905000
vn 0.009000 0.030800 0.999500
vn 0.025500 0.087100 0.995900
vn 0.016200 0.055500 -0.998300
vn 0.031500 0.107800 -0.993700
vn 0.186900 0.638700 -0.746400
vn 0.917200 -0.398400 -0.000000
vn -0.950200 0.311500 -0.000000
vn -0.038000 -0.129900 -0.990800
vn -0.998100 0.062000 0.000000
vn 0.981300 -0.192500 -0.000000
vn -0.062000 -0.211900 -0.975300
vn -0.988600 0.150500 0.000000
vn 0.974400 -0.224900 -0.000000
vn -0.037400 -0.127900 0.991100
vn 0.221000 0.755400 0.616900
vn -0.082300 -0.281200 0.956100
vn -0.922100 0.386900 0.000000
vn 0.835300 -0.549700 -0.000000
vn 0.208000 0.710700 -0.672100
vn -0.437100 0.899400 0.000000
vn 0.208000 0.710700 0.672100
vn 0.853000 0.521900 -0.000000
vn 0.869700 0.493600 0.000000
vn -0.515200 0.857100 -0.000000
vn 0.169400 0.579100 -0.797500
vn 0.903300 0.429100 -0.000000
vn -0.529500 0.848300 0.000000
vn 0.186900 0.638700 0.746400
vn 0.184500 0.630400 0.754000
vn 0.184500 0.630400 -0.754000
vn -0.539200 0.842200 0.000000
vn 0.908100 0.418700 -0.000000
usemtl crystal
s off
f 9//1 7//1 12//1
f 9//2 17//2 16//2
f 9//3 8//3 20//3
f 9//4 25//4 24//4
f 21//5 20//5 28//5
f 7//6 3//6 10//6
f 9//7 13//7 11//7
f 6//8 11//8 10//8
f 8//9 16//9 14//9
f 9//10 6//10 15//10
f 6//11 4//11 14//11
f 8//12 2//12 18//12
f 9//13 21//13 19//13
f 5//14 19//14 18//14
f 13//15 12//15 27//15
f 5//16 1//16 22//16
f 9//17 5//17 23//17
f 7//18 24//18 22//18
f 24//19 25//19 26//19
f 25//20 23//20 26//20
f 23//21 22//21 26//21
f 22//22 24//22 26//22
f 12//23 10//23 27//23
f 11//24 13//24 27//24
f 10//25 11//25 27//25
f 19//26 21//26 28//26
f 20//27 18//27 28//27
f 18//28 19//28 28//28
f 16//29 17//29 29//29
f 15//30 14//30 29//30
f 14//31 16//31 29//31
f 17//32 15//32 29//32
f 38//33 36//33 41//33
f 38//34 46//34 45//34
f 38//35 37//35 49//35
f 38//36 54//36 53//36
f 50//37 49//37 57//37
f 36//38 32//38 39//38
f 38//39 42//39 40//39
f 35//40 40//40 39//40
f 37//41 45//41 43//41
f 38//42 35//42 44//42
f 35//43 33//43 43//43
f 37//44 31//44 47//44
f 38//45 50//45 48//45
f 34//46 48//46 47//46
f 42//47 41//47 56//47
f 34//48 30//48 51//48
f 38//49 34//49 52//49
f 36//50 53//50 51//50
f 53//51 54//51 55//51
f 54//52 52//52 55//52
f 52//53 51//53 55//53
f 51//54 53//54 55//54
f 41//55 39//55 56//55
f 40//56 42//56 56//56
f 39//57 40//57 56//57
f 48//58 50//58 57//58
f 49//59 47//59 57//59
f 47//60 48//60 57//60
f 45//61 46//61 58//61
f 44//62 43//62 58//62
f 43//63 45//63 58//63
f 46//64 44//64 58//64
f 67//65 65//65 70//65
f 67//66 75//66 74//66
f 67//67 66//67 78//67
f 67//68 83//68 82//68
f 79//69 78//69 86//69
f 65//70 61//70 68//70
f 67//71 71//71 69//71
f 64//72 69//72 68//72
f 66//73 74//73 72//73
f 67//74 64//74 73//74
f 64//75 62//75 72//75
f 66//76 60//76 76//76
f 67//77 79//77 77//77
f 63//78 77//78 76//78
f 71//79 70//79 85//79
f 63//80 59//80 80//80
f 67//81 63//81 81//81
f 65//82 82//82 80//82
f 82//83 83//83 84//83
f 83//84 81//84 84//84
f 81//85 80//85 84//85
f 80//86 82//86 84//86
f 70//87 68//87 85//87
f 69//88 71//88 85//88
f 68//89 69//89 85//89
f 77//90 79//90 86//90
f 78//91 76//91 86//91
f 76//92 77//92 86//92
f 74//93 75//93 87//93
f 73//94 72//94 87//94
f 72//95 74//95 87//95
f 75//96 73//96 87//96
f 13//1 9//1 12//1
f 8//2 9//2 16//2
f 21//3 9//3 20//3
f 7//4 9//4 24//4
f 12//6 7//6 10//6
f 6//7 9//7 11//7
f 3//8 6//8 10//8
f 4//9 8//9 14//9
f 17//10 9//10 15//10
f 15//11 6//11 14//11
f 20//12 8//12 18//12
f 5//13 9//13 19//13
f 2//14 5//14 18//14
f 23//16 5//16 22//16
f 25//17 9//17 23//17
f 1//18 7//18 22//18
f 42//33 38//33 41//33
f 37//34 38//34 45//34
f 50//35 38//35 49//35
f 36//36 38//36 53//36
f 41//38 36//38 39//38
f 35//39 38//39 40//39
f 32//40 35//40 39//40
f 33//41 37//41 43//41
f 46//42 38//42 44//42
f 44//43 35//43 43//43
f 49//44 37//44 47//44
f 34//45 38//45 48//45
f 31//46 34//46 47//46
f 52//48 34//48 51//48
f 54//49 38//49 52//49
f 30//50 36//50 51//50
f 71//65 67//65 70//65
f 66//66 67//66 74//66
f 79//67 67//67 78//67
f 65//68 67//68 82//68
f 70//70 65//70 68//70
f 64//71 67//71 69//71
f 61//72 64//72 68//72
f 62//73 66//73 72//73
f 75//74 67//74 73//74
f 73//75 64//75 72//75
f 78//76 66//76 76//76
f 63//77 67//77 77//77
f 60//78 63//78 76//78
f 81//80 63//80 80//80
f 83//81 67//81 81//81
f 59//82 65//82 80//82
